<svg width="200" height="200" viewBox="0 0 200 200" fill="none" xmlns="http://www.w3.org/2000/svg">
<path d="M162.5 37.5C156.973 37.5164 151.607 39.3661 147.243 42.7592C142.88 46.1522 139.765 50.897 138.387 56.25H112.062C110.897 46.9699 107.151 38.203 101.25 30.9465C95.3488 23.6901 87.5298 18.2352 78.6822 15.2023C69.8345 12.1694 60.3134 11.6803 51.2015 13.7906C42.0897 15.9008 33.7529 20.5257 27.1393 27.1393C20.5257 33.7529 15.9008 42.0897 13.7906 51.2015C11.6803 60.3134 12.1694 69.8345 15.2023 78.6822C18.2352 87.5298 23.6901 95.3488 30.9465 101.25C38.203 107.151 46.9699 110.897 56.25 112.062V138.387C50.3584 139.909 45.2238 143.526 41.8087 148.563C38.3937 153.599 36.9325 159.707 37.6993 165.744C38.466 171.78 41.4079 177.33 45.9735 181.352C50.5392 185.374 56.4152 187.594 62.5 187.594C68.5848 187.594 74.4608 185.374 79.0265 181.352C83.5921 177.33 86.534 171.78 87.3007 165.744C88.0675 159.707 86.6063 153.599 83.1913 148.563C79.7762 143.526 74.6416 139.909 68.75 138.387V112.069C77.6348 110.95 86.0523 107.452 93.1125 101.944L116.044 124.881C113.748 128.692 112.524 133.051 112.5 137.5C112.5 142.445 113.966 147.278 116.713 151.389C119.46 155.5 123.365 158.705 127.933 160.597C132.501 162.489 137.528 162.984 142.377 162.02C147.227 161.055 151.681 158.674 155.178 155.178C158.674 151.681 161.055 147.227 162.02 142.377C162.984 137.528 162.489 132.501 160.597 127.933C158.705 123.365 155.5 119.46 151.389 116.713C147.278 113.966 142.445 112.5 137.5 112.5C133.051 112.523 128.692 113.748 124.881 116.044L101.944 93.1062C107.454 86.0486 110.954 77.6333 112.075 68.75H138.394C139.571 73.2662 141.991 77.3619 145.378 80.572C148.766 83.782 152.986 85.9777 157.559 86.9098C162.133 87.8418 166.875 87.4728 171.249 85.8447C175.623 84.2166 179.453 81.3946 182.304 77.6992C185.154 74.0038 186.911 69.5832 187.376 64.9392C187.84 60.2953 186.993 55.6142 184.93 51.4275C182.868 47.2409 179.673 43.7165 175.708 41.2546C171.743 38.7927 167.167 37.4919 162.5 37.5ZM75 162.5C75 164.972 74.2669 167.389 72.8934 169.445C71.5198 171.5 69.5676 173.102 67.2835 174.048C64.9995 174.995 62.4861 175.242 60.0614 174.76C57.6366 174.277 55.4093 173.087 53.6612 171.339C51.913 169.591 50.7225 167.363 50.2402 164.939C49.7579 162.514 50.0054 160.001 50.9515 157.716C51.8976 155.432 53.4998 153.48 55.5554 152.107C57.611 150.733 60.0277 150 62.5 150C65.8142 150.003 68.9917 151.321 71.3352 153.665C73.6787 156.008 74.9967 159.186 75 162.5ZM62.5 100C55.0832 100 47.833 97.8007 41.6661 93.6801C35.4993 89.5596 30.6928 83.7029 27.8545 76.8506C25.0162 69.9984 24.2736 62.4584 25.7205 55.1841C27.1675 47.9098 30.739 41.228 35.9835 35.9835C41.228 30.739 47.9098 27.1675 55.1841 25.7205C62.4584 24.2736 69.9984 25.0162 76.8506 27.8545C83.7029 30.6928 89.5596 35.4993 93.6801 41.6661C97.8007 47.833 100 55.0832 100 62.5C99.9884 72.4421 96.0338 81.9736 89.0037 89.0037C81.9736 96.0338 72.4421 99.9884 62.5 100ZM150 137.5C150 139.972 149.267 142.389 147.893 144.445C146.52 146.5 144.568 148.102 142.284 149.048C139.999 149.995 137.486 150.242 135.061 149.76C132.637 149.277 130.409 148.087 128.661 146.339C126.913 144.591 125.722 142.363 125.24 139.939C124.758 137.514 125.005 135.001 125.951 132.716C126.898 130.432 128.5 128.48 130.555 127.107C132.611 125.733 135.028 125 137.5 125C140.814 125.003 143.992 126.321 146.335 128.665C148.679 131.008 149.997 134.186 150 137.5ZM162.5 75C160.028 75 157.611 74.2669 155.555 72.8934C153.5 71.5198 151.898 69.5676 150.952 67.2835C150.005 64.9995 149.758 62.4861 150.24 60.0614C150.723 57.6366 151.913 55.4093 153.661 53.6612C155.409 51.913 157.637 50.7225 160.061 50.2402C162.486 49.7579 164.999 50.0054 167.284 50.9515C169.568 51.8976 171.52 53.4998 172.893 55.5554C174.267 57.611 175 60.0277 175 62.5C174.997 65.8142 173.679 68.9917 171.335 71.3352C168.992 73.6787 165.814 74.9967 162.5 75Z" fill="#D27C2C"/>
</svg>
